<svg xmlns="http://www.w3.org/2000/svg" viewBox="0 0 1200 630" width="1200" height="630">
  <defs>
    <radialGradient id="bgGlow" cx="50%" cy="65%" r="65%">
      <stop offset="0%" stop-color="#11222c"/>
      <stop offset="55%" stop-color="#080b10"/>
      <stop offset="100%" stop-color="#040507"/>
    </radialGradient>
    <linearGradient id="shipRim" x1="0" y1="10" x2="0" y2="82" gradientUnits="userSpaceOnUse">
      <stop offset="0%" stop-color="#4affff"/>
      <stop offset="35%" stop-color="#23d5d8"/>
      <stop offset="100%" stop-color="#18929f"/>
    </linearGradient>
    <radialGradient id="shipCore" cx="48" cy="42" r="22" gradientUnits="userSpaceOnUse">
      <stop offset="0%" stop-color="#29c4d2"/>
      <stop offset="65%" stop-color="#0e5865"/>
      <stop offset="100%" stop-color="#062e37"/>
    </radialGradient>
  </defs>
  <rect width="1200" height="630" fill="url(#bgGlow)"/>
  <g stroke="#ffffff" stroke-opacity="0.03" stroke-width="1">
    <line x1="0" y1="105" x2="1200" y2="105"/>
    <line x1="0" y1="210" x2="1200" y2="210"/>
    <line x1="0" y1="315" x2="1200" y2="315"/>
    <line x1="0" y1="420" x2="1200" y2="420"/>
    <line x1="0" y1="525" x2="1200" y2="525"/>
    <line x1="200" y1="0" x2="200" y2="630"/>
    <line x1="400" y1="0" x2="400" y2="630"/>
    <line x1="600" y1="0" x2="600" y2="630"/>
    <line x1="800" y1="0" x2="800" y2="630"/>
    <line x1="1000" y1="0" x2="1000" y2="630"/>
  </g>
  <text x="600" y="120" text-anchor="middle" fill="#a1a1aa" font-family="monospace" font-size="24" letter-spacing="8">dushi_dev</text>
  <text x="594" y="226" text-anchor="middle" fill="#1e6073" font-family="monospace" font-weight="900" font-size="96" letter-spacing="6">OrbitKey</text>
  <text x="600" y="218" text-anchor="middle" fill="#ffffff" font-family="monospace" font-weight="900" font-size="96" letter-spacing="6">OrbitKey</text>
  <g transform="translate(528, 265) scale(1.5)">
    <rect x="42" y="11" width="12" height="13" rx="1" fill="#d8e6ee"/>
    <path d="M48 12 L84 59 L79 74 L63 68 L56 79 Q48 74 40 79 L33 68 L17 74 L12 59 Z" fill="url(#shipRim)"/>
    <path d="M48 23 L76 58 L73 67 L61 62 L54 72 Q48 67 42 72 L35 62 L23 67 L20 58 Z" fill="#04232c"/>
    <polygon points="48,23 23,56 38,61" fill="#167f8b"/>
    <polygon points="48,23 73,56 58,61" fill="#167f8b"/>
    <polygon points="48,23 56,48 48,57 40,48" fill="url(#shipCore)"/>
    <polygon points="40,48 48,57 56,48 58,61 48,66 38,61" fill="#083b46"/>
  </g>
  <text x="600" y="475" text-anchor="middle" fill="#ff8800" font-family="monospace" font-weight="700" font-size="34" letter-spacing="3">SPACE TYPING ARCADE SHOOTER</text>
  <text x="600" y="530" text-anchor="middle" fill="#d4d4d8" font-family="monospace" font-size="22" letter-spacing="1.5">Destroy incoming word waves • Track WPM &amp; Accuracy • Load Custom Text</text>
</svg>
